/* XPM */
static char * heart_20_xpm[] = {
"44 20 5 1",
" 	c None",
"-	c #FFFFFF",
".	c #FF0000",
"+	c #800000",
"h	c #ECBFBF",
"                                            ",
"                                            ",
"                                            ",
"                                            ",
"                                            ",
"                                            ",
"     --  --        --  --        --  --     ",
"    -..--..-      -..--..-      -..--  -    ",
"   -+.....h.-    -+.....h.-    -+...    -   ",
"   -+.......-    -+.......-    -+...    -   ",
"   -+.......-    -+.......-    -+...    -   ",
"    -+.....-      -+.....-      -+..   -    ",
"     -+...-        -+...-        -+.  -     ",
"      -+.-          -+.-          -+ -      ",
"       --            --            --       ",
"                                            ",
"                                            ",
"                                            ",
"                                            ",
"                                            "};

